<?xml version="1.0" encoding="UTF-8" standalone="no"?>
<!DOCTYPE svg PUBLIC "-//W3C//DTD SVG 1.1//EN"
 "http://www.w3.org/Graphics/SVG/1.1/DTD/svg11.dtd">
<!-- Generated by graphviz version 2.38.0 (20140413.2041)
 -->
<!-- Title: snakemake_dag Pages: 1 -->
<svg width="240pt" height="260pt"
 viewBox="0.00 0.00 240.16 260.00" xmlns="http://www.w3.org/2000/svg" xmlns:xlink="http://www.w3.org/1999/xlink">
<g id="graph0" class="graph" transform="scale(1 1) rotate(0) translate(4 256)">
<title>snakemake_dag</title>
<polygon fill="white" stroke="none" points="-4,4 -4,-256 236.161,-256 236.161,4 -4,4"/>
<!-- 0 -->
<g id="node1" class="node"><title>0</title>
<path fill="none" stroke="#56d8d8" stroke-width="2" d="M113.427,-36C113.427,-36 70.1236,-36 70.1236,-36 64.1236,-36 58.1236,-30 58.1236,-24 58.1236,-24 58.1236,-12 58.1236,-12 58.1236,-6 64.1236,-0 70.1236,-0 70.1236,-0 113.427,-0 113.427,-0 119.427,-0 125.427,-6 125.427,-12 125.427,-12 125.427,-24 125.427,-24 125.427,-30 119.427,-36 113.427,-36"/>
<text text-anchor="middle" x="91.7755" y="-15" font-family="sans" font-size="10.00">bcftools_call</text>
</g>
<!-- 1 -->
<g id="node2" class="node"><title>1</title>
<path fill="none" stroke="#59d856" stroke-width="2" stroke-dasharray="5,2" d="M86.0478,-108C86.0478,-108 31.5032,-108 31.5032,-108 25.5032,-108 19.5032,-102 19.5032,-96 19.5032,-96 19.5032,-84 19.5032,-84 19.5032,-78 25.5032,-72 31.5032,-72 31.5032,-72 86.0478,-72 86.0478,-72 92.0478,-72 98.0478,-78 98.0478,-84 98.0478,-84 98.0478,-96 98.0478,-96 98.0478,-102 92.0478,-108 86.0478,-108"/>
<text text-anchor="middle" x="58.7755" y="-87" font-family="sans" font-size="10.00">samtools_index</text>
</g>
<!-- 1&#45;&gt;0 -->
<g id="edge2" class="edge"><title>1&#45;&gt;0</title>
<path fill="none" stroke="grey" stroke-width="2" d="M66.9328,-71.6966C70.6893,-63.7284 75.2286,-54.0995 79.3938,-45.2641"/>
<polygon fill="grey" stroke="grey" stroke-width="2" points="82.6136,-46.6421 83.712,-36.1043 76.2819,-43.6571 82.6136,-46.6421"/>
</g>
<!-- 2 -->
<g id="node3" class="node"><title>2</title>
<path fill="none" stroke="#d85656" stroke-width="2" stroke-dasharray="5,2" d="M164.049,-252C164.049,-252 131.502,-252 131.502,-252 125.502,-252 119.502,-246 119.502,-240 119.502,-240 119.502,-228 119.502,-228 119.502,-222 125.502,-216 131.502,-216 131.502,-216 164.049,-216 164.049,-216 170.049,-216 176.049,-222 176.049,-228 176.049,-228 176.049,-240 176.049,-240 176.049,-246 170.049,-252 164.049,-252"/>
<text text-anchor="middle" x="147.775" y="-237" font-family="sans" font-size="10.00">bwa_map</text>
<text text-anchor="middle" x="147.775" y="-225" font-family="sans" font-size="10.00">sample: B</text>
</g>
<!-- 6 -->
<g id="node7" class="node"><title>6</title>
<path fill="none" stroke="#d6d856" stroke-width="2" stroke-dasharray="5,2" d="M171.328,-180C171.328,-180 124.223,-180 124.223,-180 118.223,-180 112.223,-174 112.223,-168 112.223,-168 112.223,-156 112.223,-156 112.223,-150 118.223,-144 124.223,-144 124.223,-144 171.328,-144 171.328,-144 177.328,-144 183.328,-150 183.328,-156 183.328,-156 183.328,-168 183.328,-168 183.328,-174 177.328,-180 171.328,-180"/>
<text text-anchor="middle" x="147.775" y="-159" font-family="sans" font-size="10.00">samtools_sort</text>
</g>
<!-- 2&#45;&gt;6 -->
<g id="edge8" class="edge"><title>2&#45;&gt;6</title>
<path fill="none" stroke="grey" stroke-width="2" d="M147.775,-215.697C147.775,-207.983 147.775,-198.712 147.775,-190.112"/>
<polygon fill="grey" stroke="grey" stroke-width="2" points="151.276,-190.104 147.775,-180.104 144.276,-190.104 151.276,-190.104"/>
</g>
<!-- 3 -->
<g id="node4" class="node"><title>3</title>
<path fill="none" stroke="#59d856" stroke-width="2" stroke-dasharray="5,2" d="M220.048,-108C220.048,-108 165.503,-108 165.503,-108 159.503,-108 153.503,-102 153.503,-96 153.503,-96 153.503,-84 153.503,-84 153.503,-78 159.503,-72 165.503,-72 165.503,-72 220.048,-72 220.048,-72 226.048,-72 232.048,-78 232.048,-84 232.048,-84 232.048,-96 232.048,-96 232.048,-102 226.048,-108 220.048,-108"/>
<text text-anchor="middle" x="192.775" y="-87" font-family="sans" font-size="10.00">samtools_index</text>
</g>
<!-- 3&#45;&gt;0 -->
<g id="edge3" class="edge"><title>3&#45;&gt;0</title>
<path fill="none" stroke="grey" stroke-width="2" d="M168.068,-71.8761C155.107,-62.8931 139.047,-51.7625 125.01,-42.0341"/>
<polygon fill="grey" stroke="grey" stroke-width="2" points="126.791,-39.0095 116.578,-36.1898 122.803,-44.7628 126.791,-39.0095"/>
</g>
<!-- 4 -->
<g id="node5" class="node"><title>4</title>
<path fill="none" stroke="#d6d856" stroke-width="2" stroke-dasharray="5,2" d="M59.3279,-180C59.3279,-180 12.2231,-180 12.2231,-180 6.2231,-180 0.2231,-174 0.2231,-168 0.2231,-168 0.2231,-156 0.2231,-156 0.2231,-150 6.2231,-144 12.2231,-144 12.2231,-144 59.3279,-144 59.3279,-144 65.3279,-144 71.3279,-150 71.3279,-156 71.3279,-156 71.3279,-168 71.3279,-168 71.3279,-174 65.3279,-180 59.3279,-180"/>
<text text-anchor="middle" x="35.7755" y="-159" font-family="sans" font-size="10.00">samtools_sort</text>
</g>
<!-- 4&#45;&gt;0 -->
<g id="edge1" class="edge"><title>4&#45;&gt;0</title>
<path fill="none" stroke="grey" stroke-width="2" d="M23.5592,-143.749C12.0372,-125.167 -1.74391,-95.153 10.7755,-72 19.1161,-56.5753 34.1142,-44.9196 48.9571,-36.523"/>
<polygon fill="grey" stroke="grey" stroke-width="2" points="50.8922,-39.46 58.118,-31.7115 47.6373,-33.2628 50.8922,-39.46"/>
</g>
<!-- 4&#45;&gt;1 -->
<g id="edge5" class="edge"><title>4&#45;&gt;1</title>
<path fill="none" stroke="grey" stroke-width="2" d="M41.4609,-143.697C44.0233,-135.898 47.1084,-126.509 49.9602,-117.829"/>
<polygon fill="grey" stroke="grey" stroke-width="2" points="53.359,-118.697 53.1555,-108.104 46.7088,-116.512 53.359,-118.697"/>
</g>
<!-- 5 -->
<g id="node6" class="node"><title>5</title>
<path fill="none" stroke="#d85656" stroke-width="2" stroke-dasharray="5,2" d="M52.0988,-252C52.0988,-252 19.4522,-252 19.4522,-252 13.4522,-252 7.45223,-246 7.45223,-240 7.45223,-240 7.45223,-228 7.45223,-228 7.45223,-222 13.4522,-216 19.4522,-216 19.4522,-216 52.0988,-216 52.0988,-216 58.0988,-216 64.0988,-222 64.0988,-228 64.0988,-228 64.0988,-240 64.0988,-240 64.0988,-246 58.0988,-252 52.0988,-252"/>
<text text-anchor="middle" x="35.7755" y="-237" font-family="sans" font-size="10.00">bwa_map</text>
<text text-anchor="middle" x="35.7755" y="-225" font-family="sans" font-size="10.00">sample: A</text>
</g>
<!-- 5&#45;&gt;4 -->
<g id="edge7" class="edge"><title>5&#45;&gt;4</title>
<path fill="none" stroke="grey" stroke-width="2" d="M35.7755,-215.697C35.7755,-207.983 35.7755,-198.712 35.7755,-190.112"/>
<polygon fill="grey" stroke="grey" stroke-width="2" points="39.2756,-190.104 35.7755,-180.104 32.2756,-190.104 39.2756,-190.104"/>
</g>
<!-- 6&#45;&gt;0 -->
<g id="edge4" class="edge"><title>6&#45;&gt;0</title>
<path fill="none" stroke="grey" stroke-width="2" d="M141.021,-143.871C131.392,-119.457 113.634,-74.4258 102.28,-45.6351"/>
<polygon fill="grey" stroke="grey" stroke-width="2" points="105.479,-44.2079 98.5544,-36.1893 98.9672,-46.7761 105.479,-44.2079"/>
</g>
<!-- 6&#45;&gt;3 -->
<g id="edge6" class="edge"><title>6&#45;&gt;3</title>
<path fill="none" stroke="grey" stroke-width="2" d="M158.899,-143.697C164.131,-135.559 170.475,-125.689 176.253,-116.701"/>
<polygon fill="grey" stroke="grey" stroke-width="2" points="179.316,-118.409 181.78,-108.104 173.428,-114.623 179.316,-118.409"/>
</g>
</g>
</svg>
